<svg xmlns="http://www.w3.org/2000/svg" width="282.812" height="50.531" viewBox="0 0 282.812 50.531">
  <defs>
    <style>
      .cls-1 {
        fill-rule: evenodd;
      }
    </style>
  </defs>
  <path id="GT_LOGO" data-name="GT LOGO" class="cls-1" d="M264.693,287.692a0,0,0,0,0,0,0H215.635c-7.116.014-12.97,0.205-19.365,2.049-1.522.445-3.061,0.991-2.336,0.741-12.2,4.181-22.595,12.631-26.184,22.375h0c-3.513,9.534.407,17.829,9.118,22.1L176.96,335a26.562,26.562,0,0,0,3,1.23c5.177,1.708,11,1.788,14.63,1.791h51.57a0.591,0.591,0,0,0,.5-0.366l11.2-30.419a0.249,0.249,0,0,0-.23-0.367H211.264a0.559,0.559,0,0,0-.325.137h0l-0.134.121h0l-12.6,11.414h0a0.576,0.576,0,0,0-.134.2,0.251,0.251,0,0,0,.237.37h39l-2.444,5.633H198.824c-5.072,0-8.219-.455-10.416-1.75a8.222,8.222,0,0,1-1.589-1.241c-0.094-.094-0.273-0.291-0.29-0.308-1.909-2.164-2.259-5.212-.6-8.589,1.8-3.653,5.579-6.921,10.062-9.1l0.015-.007-0.015.007c0.057-.027.5-0.237,0.729-0.342a30.772,30.772,0,0,1,13.156-2.445h49.946a0.592,0.592,0,0,0,.472-0.331l4.634-12.578A0.249,0.249,0,0,0,264.693,287.692Zm89.109,0H272.074s0,0,0,0a0.589,0.589,0,0,0-.51.37,0.008,0.008,0,0,0,0,0L266.944,300.6h0a0.249,0.249,0,0,0,.228.369h31.489l-13.583,36.876h0a0.25,0.25,0,0,0,.238.369l0.005,0h18.033a0.588,0.588,0,0,0,.488-0.359l13.589-36.889h31.5a0.6,0.6,0,0,0,.484-0.358l4.623-12.553A0.249,0.249,0,0,0,353.8,287.692Zm93.606,0H362.736a2.861,2.861,0,0,0-2.7,1.888l-16.6,46.131a1.879,1.879,0,0,0,1.782,2.5H429.9a2.865,2.865,0,0,0,2.7-1.887L449.188,290.2A1.878,1.878,0,0,0,447.408,287.691Zm-17.9,46.771H347.652l15.473-43.018h81.856Zm-49.251-24.291h-2.994l3.48-9.489-6.8,6.792H373.6l-1.821-6.771-3.474,9.468h-3.015l5.367-14.631h3.1l1.855,6.919,6.909-6.919h3.1Zm17.121-10.451-3.834,10.451h-2.82l0.453-1.233a6.37,6.37,0,0,1-4.122,1.526c-2.906,0-4.429-2.4-3.286-5.518s4.427-5.518,7.335-5.518a2.992,2.992,0,0,1,3,1.525l0.452-1.233h2.82Zm-4.736,5.226c0.643-1.756-.209-2.947-1.957-2.947a4.507,4.507,0,0,0-4.1,2.947c-0.645,1.755.207,2.947,1.933,2.947A4.518,4.518,0,0,0,392.64,304.946Zm12.183,2.173c-0.829,2.257-3.28,3.345-5.62,3.345-2.185,0-3.48-.879-3.677-2.488l2.932-1.316c-0.009.856,0.55,1.358,1.643,1.358a1.8,1.8,0,0,0,1.838-.9c0.559-1.526-5.386-.689-4.037-4.368a5.627,5.627,0,0,1,5.372-3.323c1.77,0,3.017.773,3.339,2.215L403.75,302.9a1.2,1.2,0,0,0-1.357-1.066,1.609,1.609,0,0,0-1.583.857C400.243,304.235,406.235,303.273,404.823,307.119Zm6.484-4.807-1.594,4.348c-0.415,1.128.43,1.149,2.078,1.065l-0.9,2.446c-4.11.418-5.036-.69-4-3.511l1.6-4.348h-1.9l0.95-2.592h1.9l0.774-2.111,3.118-.815-1.073,2.926h2.469l-0.95,2.592h-2.47Zm6.955,5.706a4.44,4.44,0,0,0,2.831-1.045l1.813,1.254a8.209,8.209,0,0,1-5.586,2.237c-3.671,0-5.105-2.4-3.963-5.518a8.59,8.59,0,0,1,7.794-5.518c3.235,0,4.632,2.445,3.5,5.518a7.949,7.949,0,0,1-.516,1.107H415.9C415.789,307.433,416.776,308.018,418.262,308.018Zm3.935-4.055a1.724,1.724,0,0,0-1.936-2.111,4.2,4.2,0,0,0-3.637,2.111H422.2Zm12.014-4.451-1.105,3.01a4.056,4.056,0,0,0-4.294,2.654l-1.834,5h-2.819l3.834-10.451h2.819l-0.659,1.8A5.121,5.121,0,0,1,434.211,299.512ZM369.1,325.556l-1.012,2.758h-9.463L364,313.684h9.355l-1.013,2.759H366l-1.141,3.114h5.79l-1,2.717H363.86l-1.205,3.282H369.1Zm16.659-11.872-5.368,14.63h-2.819l0.452-1.233a6.21,6.21,0,0,1-4.1,1.526c-2.929,0-4.451-2.4-3.308-5.518s4.428-5.518,7.355-5.518c1.6,0,2.547.564,2.982,1.526l1.986-5.413h2.819Zm-6.27,9.4c0.645-1.756-.208-2.947-1.936-2.947a4.516,4.516,0,0,0-4.118,2.947c-0.644,1.755.209,2.948,1.957,2.948A4.512,4.512,0,0,0,379.493,323.089Zm6.768-5.225h2.819l-3.833,10.45h-2.819Zm0.738-2.9a2.742,2.742,0,0,1,2.34-1.672,1.16,1.16,0,0,1,1.135,1.672,2.715,2.715,0,0,1-2.354,1.651A1.145,1.145,0,0,1,387,314.959Zm6.944,5.5-1.595,4.347c-0.414,1.129.431,1.149,2.078,1.066l-0.9,2.445c-4.109.418-5.036-.689-4-3.511l1.595-4.347h-1.9l0.95-2.592h1.9l0.774-2.111,3.119-.815-1.073,2.926h2.47l-0.951,2.592h-2.47Zm4.862-2.592h2.819l-3.834,10.45h-2.819Zm0.739-2.9a2.741,2.741,0,0,1,2.339-1.672,1.16,1.16,0,0,1,1.135,1.672,2.716,2.716,0,0,1-2.355,1.651A1.145,1.145,0,0,1,399.544,314.959Zm1.628,8.13a8.832,8.832,0,0,1,7.794-5.518c3.212,0,4.909,2.4,3.767,5.518a8.863,8.863,0,0,1-7.816,5.518C401.7,328.607,400.029,326.2,401.172,323.089Zm8.742,0c0.621-1.693-.232-2.884-1.915-2.884a4.472,4.472,0,0,0-4.008,2.884c-0.621,1.693.231,2.885,1.892,2.885A4.48,4.48,0,0,0,409.914,323.089Zm14.9-1.191-2.354,6.416h-2.819l2.231-6.082c0.521-1.421-.106-2.152-1.374-2.152a3.528,3.528,0,0,0-3.355,2.591l-2.07,5.643h-2.819l3.834-10.45h2.819l-0.43,1.17a5.475,5.475,0,0,1,3.794-1.463C424.591,317.571,425.837,319.118,424.818,321.9Z" transform="translate(-166.469 -287.688)"/>
</svg>
